<?xml version="1.0" encoding="UTF-8"?>
<svg width="49px" height="48px" viewBox="0 0 49 48" version="1.1" xmlns="http://www.w3.org/2000/svg" xmlns:xlink="http://www.w3.org/1999/xlink">
    <!-- Generator: Sketch 41.1 (35376) - http://www.bohemiancoding.com/sketch -->
    <title>Page 1</title>
    <desc>Created with Sketch.</desc>
    <defs>
        <polygon id="path-1" points="5.26793196e-05 47.9933077 49.0149988 47.9933077 49.0149988 0.233883964 5.26793196e-05 0.233883964 5.26793196e-05 47.9933077"></polygon>
    </defs>
    <g id="Page-1" stroke="none" stroke-width="1" fill="none" fill-rule="evenodd">
        <g id="anon-validation" transform="translate(-28.000000, -37.000000)">
            <g id="Page-1" transform="translate(28.000000, 36.927522)">
                <g id="Anon-icon" transform="translate(0.000000, -0.000000)">
                    <g id="Group-3" transform="translate(0.000000, 0.022842)">
                        <mask id="mask-2" fill="white">
                            <use xlink:href="#path-1"></use>
                        </mask>
                        <g id="Clip-2"></g>
                        <path d="M5.26793196e-05,24.113506 C5.26793196e-05,10.925099 10.9723648,0.233883964 24.5075257,0.233883964 C38.0426867,0.233883964 49.0149988,10.925099 49.0149988,24.113506 C49.0149988,37.3021696 38.0426867,47.9933847 24.5075257,47.9933847 C10.9723648,47.9933847 5.26793196e-05,37.3021696 5.26793196e-05,24.113506" id="Fill-1" fill="#FFFFFF" mask="url(#mask-2)"></path>
                    </g>
                    <path d="M17.5004914,17.2279036 C17.5004914,13.4543977 20.6399154,10.3954018 24.5126356,10.3954018 C28.3853558,10.3954018 31.5247799,13.4543977 31.5247799,17.2279036 C31.5247799,21.0014095 28.3853558,24.0604054 24.5126356,24.0604054 C20.6399154,24.0604054 17.5004914,21.0014095 17.5004914,17.2279036" id="Fill-4" fill="#CAD3D9"></path>
                    <path d="M30.9260004,22.694213 C29.3637951,24.4358311 27.0675036,25.5360841 24.5075521,25.537624 C21.9476005,25.5360841 19.651309,24.4358311 18.0891038,22.694213 C18.0891038,22.694213 11.3656422,26.328102 12.6826252,35.5032932 C12.6826252,35.5032932 17.3737186,37.8749838 24.5025475,37.8772937 L24.5075521,37.8772937 L24.5125566,37.8772937 C31.6413855,37.8749838 36.3324789,35.5032932 36.3324789,35.5032932 C37.6494619,26.328102 30.9260004,22.694213 30.9260004,22.694213" id="Fill-6" fill="#CAD3D9"></path>
                </g>
            </g>
        </g>
    </g>
</svg>
